<svg width="50" height="50" viewBox="0 0 50 50" fill="none" xmlns="http://www.w3.org/2000/svg">
<rect width="50" height="50" rx="25" fill="white" fill-opacity="0.7"/>
<path d="M21.2041 18.2959C20.9927 18.0846 20.874 17.7979 20.874 17.499C20.874 17.2001 20.9927 16.9135 21.2041 16.7022C21.4154 16.4908 21.702 16.3721 22.0009 16.3721C22.2998 16.3721 22.5865 16.4908 22.7978 16.7022L30.2978 24.2022C30.4027 24.3067 30.4859 24.4309 30.5427 24.5676C30.5995 24.7044 30.6287 24.851 30.6287 24.999C30.6287 25.1471 30.5995 25.2937 30.5427 25.4304C30.4859 25.5672 30.4027 25.6914 30.2978 25.7959L22.7978 33.2959C22.5865 33.5072 22.2998 33.626 22.0009 33.626C21.702 33.626 21.4154 33.5072 21.2041 33.2959C20.9927 33.0846 20.874 32.7979 20.874 32.499C20.874 32.2001 20.9927 31.9135 21.2041 31.7022L27.9062 25L21.2041 18.2959Z" fill="black"/>
</svg>
