<svg width="50" height="50" viewBox="0 0 50 50" fill="none" xmlns="http://www.w3.org/2000/svg">
<rect width="50" height="50" rx="25" fill="white" fill-opacity="0.7"/>
<path d="M28.7959 31.7041C29.0073 31.9154 29.126 32.2021 29.126 32.501C29.126 32.7999 29.0073 33.0865 28.7959 33.2978C28.5846 33.5092 28.298 33.6279 27.9991 33.6279C27.7002 33.6279 27.4135 33.5092 27.2022 33.2978L19.7022 25.7978C19.5973 25.6933 19.5141 25.5691 19.4573 25.4324C19.4005 25.2956 19.3713 25.149 19.3713 25.001C19.3713 24.8529 19.4005 24.7063 19.4573 24.5696C19.5141 24.4328 19.5973 24.3086 19.7022 24.2041L27.2022 16.7041C27.4135 16.4928 27.7002 16.374 27.9991 16.374C28.298 16.374 28.5846 16.4928 28.7959 16.7041C29.0073 16.9154 29.126 17.2021 29.126 17.501C29.126 17.7999 29.0073 18.0865 28.7959 18.2978L22.0938 25L28.7959 31.7041Z" fill="black"/>
</svg>
