<svg width="66" height="16" viewBox="0 0 66 16" fill="none" xmlns="http://www.w3.org/2000/svg">
<path d="M65.751 12.8291V15.1143H58.1826V12.8291H65.751ZM59.1396 0.895508V15.1143H56.21V0.895508H59.1396ZM64.7646 6.68652V8.91309H58.1826V6.68652H64.7646ZM65.7412 0.895508V3.19043H58.1826V0.895508H65.7412Z" fill="#F6F6F7"/>
<path d="M49.7029 8.87402H46.0505L46.031 6.8623H49.0974C49.6378 6.8623 50.0805 6.79395 50.4255 6.65723C50.7706 6.514 51.0278 6.30892 51.197 6.04199C51.3728 5.76855 51.4607 5.43652 51.4607 5.0459C51.4607 4.60319 51.3761 4.24512 51.2068 3.97168C51.044 3.69824 50.7869 3.49967 50.4353 3.37598C50.0903 3.25228 49.6443 3.19043 49.0974 3.19043H47.0662V15.1143H44.1365V0.895508H49.0974C49.9242 0.895508 50.6632 0.973633 51.3142 1.12988C51.9718 1.28613 52.5284 1.52376 52.9841 1.84277C53.4399 2.16178 53.7882 2.56543 54.0291 3.05371C54.2699 3.53548 54.3904 4.1084 54.3904 4.77246C54.3904 5.3584 54.2569 5.89876 53.99 6.39355C53.7296 6.88835 53.3162 7.29199 52.7498 7.60449C52.1899 7.91699 51.4574 8.08952 50.5525 8.12207L49.7029 8.87402ZM49.5759 15.1143H45.2498L46.3923 12.8291H49.5759C50.0903 12.8291 50.5102 12.7477 50.8357 12.585C51.1612 12.4157 51.4021 12.1878 51.5583 11.9014C51.7146 11.6149 51.7927 11.2861 51.7927 10.915C51.7927 10.4984 51.7211 10.137 51.5779 9.83105C51.4412 9.52507 51.2198 9.29069 50.9138 9.12793C50.6078 8.95866 50.2042 8.87402 49.7029 8.87402H46.8806L46.9001 6.8623H50.4158L51.0896 7.65332C51.9555 7.6403 52.6521 7.79329 53.1794 8.1123C53.7133 8.4248 54.1007 8.83171 54.3416 9.33301C54.5889 9.83431 54.7126 10.3714 54.7126 10.9443C54.7126 11.8558 54.5141 12.624 54.1169 13.249C53.7198 13.8675 53.1371 14.333 52.3689 14.6455C51.6072 14.958 50.6762 15.1143 49.5759 15.1143Z" fill="#F6F6F7"/>
<path d="M39.5044 0.895508H42.4243V10.29C42.4243 11.3838 42.1899 12.305 41.7212 13.0537C41.259 13.8024 40.6177 14.3656 39.7974 14.7432C38.9836 15.1208 38.0461 15.3096 36.9849 15.3096C35.9237 15.3096 34.9797 15.1208 34.1528 14.7432C33.3325 14.3656 32.688 13.8024 32.2192 13.0537C31.757 12.305 31.5259 11.3838 31.5259 10.29V0.895508H34.4556V10.29C34.4556 10.9281 34.5565 11.4489 34.7583 11.8525C34.9601 12.2562 35.2498 12.5524 35.6274 12.7412C36.0116 12.93 36.464 13.0244 36.9849 13.0244C37.5187 13.0244 37.9712 12.93 38.3423 12.7412C38.7199 12.5524 39.0063 12.2562 39.2017 11.8525C39.4035 11.4489 39.5044 10.9281 39.5044 10.29V0.895508Z" fill="#F6F6F7"/>
<path d="M27.5093 10.3975H30.4292C30.3706 11.3545 30.1069 12.2041 29.6382 12.9463C29.1759 13.6885 28.5282 14.2679 27.6948 14.6846C26.868 15.1012 25.8719 15.3096 24.7065 15.3096C23.7951 15.3096 22.978 15.1533 22.2554 14.8408C21.5327 14.5218 20.9142 14.0661 20.3999 13.4736C19.8921 12.8812 19.5047 12.165 19.2378 11.3252C18.9709 10.4854 18.8374 9.5446 18.8374 8.50293V7.5166C18.8374 6.47494 18.9741 5.53418 19.2476 4.69434C19.5275 3.84798 19.9246 3.12858 20.439 2.53613C20.9598 1.94368 21.5815 1.48796 22.3042 1.16895C23.0269 0.849935 23.8341 0.69043 24.7261 0.69043C25.911 0.69043 26.9103 0.905273 27.7241 1.33496C28.5444 1.76465 29.1792 2.3571 29.6284 3.1123C30.0841 3.86751 30.3576 4.72689 30.4487 5.69043H27.519C27.4865 5.11751 27.3726 4.63249 27.1772 4.23535C26.9819 3.83171 26.6857 3.52897 26.2886 3.32715C25.8979 3.11882 25.3771 3.01465 24.7261 3.01465C24.2378 3.01465 23.8114 3.10579 23.4468 3.28809C23.0822 3.47038 22.7762 3.74707 22.5288 4.11816C22.2814 4.48926 22.0959 4.95801 21.9722 5.52441C21.855 6.08431 21.7964 6.74186 21.7964 7.49707V8.50293C21.7964 9.23861 21.8517 9.88639 21.9624 10.4463C22.0731 10.9997 22.2424 11.4684 22.4702 11.8525C22.7046 12.2301 23.0041 12.5166 23.3687 12.7119C23.7397 12.9007 24.1857 12.9951 24.7065 12.9951C25.3185 12.9951 25.8231 12.8975 26.2202 12.7021C26.6174 12.5068 26.9201 12.2171 27.1284 11.833C27.3433 11.4489 27.4702 10.9704 27.5093 10.3975Z" fill="#F6F6F7"/>
<path d="M17.4475 7.90723V10.1143H11.9299V7.90723H17.4475Z" fill="#F6F6F7"/>
<path d="M5.56934 8.87402H1.91699L1.89746 6.8623H4.96387C5.50423 6.8623 5.94694 6.79395 6.29199 6.65723C6.63704 6.514 6.89421 6.30892 7.06348 6.04199C7.23926 5.76855 7.32715 5.43652 7.32715 5.0459C7.32715 4.60319 7.24251 4.24512 7.07324 3.97168C6.91048 3.69824 6.65332 3.49967 6.30176 3.37598C5.95671 3.25228 5.51074 3.19043 4.96387 3.19043H2.93262V15.1143H0.00292969V0.895508H4.96387C5.79069 0.895508 6.52962 0.973633 7.18066 1.12988C7.83822 1.28613 8.39486 1.52376 8.85059 1.84277C9.30632 2.16178 9.65462 2.56543 9.89551 3.05371C10.1364 3.53548 10.2568 4.1084 10.2568 4.77246C10.2568 5.3584 10.1234 5.89876 9.85645 6.39355C9.59603 6.88835 9.18262 7.29199 8.61621 7.60449C8.05632 7.91699 7.32389 8.08952 6.41895 8.12207L5.56934 8.87402ZM5.44238 15.1143H1.11621L2.25879 12.8291H5.44238C5.95671 12.8291 6.37663 12.7477 6.70215 12.585C7.02767 12.4157 7.26855 12.1878 7.4248 11.9014C7.58105 11.6149 7.65918 11.2861 7.65918 10.915C7.65918 10.4984 7.58756 10.137 7.44434 9.83105C7.30762 9.52507 7.08626 9.29069 6.78027 9.12793C6.47428 8.95866 6.07064 8.87402 5.56934 8.87402H2.74707L2.7666 6.8623H6.28223L6.95605 7.65332C7.82194 7.6403 8.51855 7.79329 9.0459 8.1123C9.57975 8.4248 9.96712 8.83171 10.208 9.33301C10.4554 9.83431 10.5791 10.3714 10.5791 10.9443C10.5791 11.8558 10.3805 12.624 9.9834 13.249C9.58626 13.8675 9.00358 14.333 8.23535 14.6455C7.47363 14.958 6.54264 15.1143 5.44238 15.1143Z" fill="#F6F6F7"/>
</svg>
