<svg width="40" height="40" viewBox="0 0 40 40" fill="none" xmlns="http://www.w3.org/2000/svg">
<rect width="40" height="40" rx="20" fill="#1A1D25"/>
<g clip-path="url(#clip0_472_1215)">
<g clip-path="url(#clip1_472_1215)">
<g clip-path="url(#clip2_472_1215)">
<path d="M20 7.29688C13.37 7.29688 8 12.6699 8 19.2969C8 24.5999 11.438 29.0969 16.205 30.6819C16.805 30.7949 17.025 30.4239 17.025 30.1049C17.025 29.8199 17.015 29.0649 17.01 28.0649C13.672 28.7889 12.968 26.4549 12.968 26.4549C12.422 25.0699 11.633 24.6999 11.633 24.6999C10.546 23.9559 11.717 23.9709 11.717 23.9709C12.922 24.0549 13.555 25.2069 13.555 25.2069C14.625 27.0419 16.364 26.5119 17.05 26.2049C17.158 25.4289 17.467 24.8999 17.81 24.5999C15.145 24.2999 12.344 23.2679 12.344 18.6699C12.344 17.3599 12.809 16.2899 13.579 15.4499C13.444 15.1469 13.039 13.9269 13.684 12.2739C13.684 12.2739 14.689 11.9519 16.984 13.5039C17.944 13.2369 18.964 13.1049 19.984 13.0989C21.004 13.1049 22.024 13.2369 22.984 13.5039C25.264 11.9519 26.269 12.2739 26.269 12.2739C26.914 13.9269 26.509 15.1469 26.389 15.4499C27.154 16.2899 27.619 17.3599 27.619 18.6699C27.619 23.2799 24.814 24.2949 22.144 24.5899C22.564 24.9499 22.954 25.6859 22.954 26.8099C22.954 28.4159 22.939 29.7059 22.939 30.0959C22.939 30.4109 23.149 30.7859 23.764 30.6659C28.565 29.0919 32 24.5919 32 19.2969C32 12.6699 26.627 7.29688 20 7.29688Z" fill="white"/>
</g>
</g>
</g>
<defs>
<clipPath id="clip0_472_1215">
<rect width="24" height="24" fill="white" transform="translate(8 7)"/>
</clipPath>
<clipPath id="clip1_472_1215">
<rect width="24" height="24" fill="white" transform="translate(8 7)"/>
</clipPath>
<clipPath id="clip2_472_1215">
<rect width="24" height="24" fill="white" transform="translate(8 7)"/>
</clipPath>
</defs>
</svg>
