<svg width="28" height="29" viewBox="0 0 28 29" fill="none" xmlns="http://www.w3.org/2000/svg">
<path d="M24.5 14.0293C24.5 14.2614 24.4078 14.4839 24.2437 14.648C24.0796 14.8121 23.8571 14.9043 23.625 14.9043H4.375C4.14294 14.9043 3.92038 14.8121 3.75628 14.648C3.59219 14.4839 3.5 14.2614 3.5 14.0293C3.5 13.7972 3.59219 13.5747 3.75628 13.4106C3.92038 13.2465 4.14294 13.1543 4.375 13.1543H23.625C23.8571 13.1543 24.0796 13.2465 24.2437 13.4106C24.4078 13.5747 24.5 13.7972 24.5 14.0293ZM4.375 7.9043H23.625C23.8571 7.9043 24.0796 7.81211 24.2437 7.64802C24.4078 7.48392 24.5 7.26136 24.5 7.0293C24.5 6.79723 24.4078 6.57467 24.2437 6.41058C24.0796 6.24648 23.8571 6.1543 23.625 6.1543H4.375C4.14294 6.1543 3.92038 6.24648 3.75628 6.41058C3.59219 6.57467 3.5 6.79723 3.5 7.0293C3.5 7.26136 3.59219 7.48392 3.75628 7.64802C3.92038 7.81211 4.14294 7.9043 4.375 7.9043ZM23.625 20.1543H4.375C4.14294 20.1543 3.92038 20.2465 3.75628 20.4106C3.59219 20.5747 3.5 20.7972 3.5 21.0293C3.5 21.2614 3.59219 21.4839 3.75628 21.648C3.92038 21.8121 4.14294 21.9043 4.375 21.9043H23.625C23.8571 21.9043 24.0796 21.8121 24.2437 21.648C24.4078 21.4839 24.5 21.2614 24.5 21.0293C24.5 20.7972 24.4078 20.5747 24.2437 20.4106C24.0796 20.2465 23.8571 20.1543 23.625 20.1543Z" fill="#F6F6F7"/>
</svg>
