<svg width="40" height="40" viewBox="0 0 40 40" fill="none" xmlns="http://www.w3.org/2000/svg">
<rect width="40" height="40" rx="20" fill="#1A1D25"/>
<g clip-path="url(#clip0_472_1191)">
<g clip-path="url(#clip1_472_1191)">
<g clip-path="url(#clip2_472_1191)">
<path fill-rule="evenodd" clip-rule="evenodd" d="M20.0001 13.8647C17.1639 13.8647 14.8649 16.1638 14.8649 18.9999C14.8649 21.8359 17.1639 24.135 20.0001 24.135C22.8361 24.135 25.1351 21.8359 25.1351 18.9999C25.1351 16.1638 22.8361 13.8647 20.0001 13.8647ZM20.0001 22.3332C18.159 22.3332 16.6667 20.8408 16.6667 18.9999C16.6667 17.1589 18.159 15.6665 20.0001 15.6665C21.841 15.6665 23.3333 17.1589 23.3333 18.9999C23.3333 20.8408 21.841 22.3332 20.0001 22.3332Z" fill="white"/>
<path d="M25.3379 14.8619C26.0006 14.8619 26.5379 14.3246 26.5379 13.6619C26.5379 12.9991 26.0006 12.4619 25.3379 12.4619C24.6751 12.4619 24.1379 12.9991 24.1379 13.6619C24.1379 14.3246 24.6751 14.8619 25.3379 14.8619Z" fill="white"/>
<path fill-rule="evenodd" clip-rule="evenodd" d="M20 9C17.2841 9 16.9436 9.01152 15.877 9.0602C14.8126 9.10875 14.0857 9.27777 13.4496 9.525C12.792 9.78055 12.2343 10.1225 11.6784 10.6784C11.1225 11.2343 10.7805 11.792 10.525 12.4496C10.2777 13.0857 10.1087 13.8126 10.0602 14.877C10.0115 15.9436 10 16.2841 10 19C10 21.7158 10.0115 22.0563 10.0602 23.1229C10.1087 24.1873 10.2777 24.9143 10.525 25.5503C10.7805 26.2079 11.1225 26.7656 11.6784 27.3216C12.2343 27.8775 12.792 28.2194 13.4496 28.475C14.0857 28.7221 14.8126 28.8912 15.877 28.9398C16.9436 28.9884 17.2841 28.9999 20 28.9999C22.7158 28.9999 23.0563 28.9884 24.1229 28.9398C25.1873 28.8912 25.9143 28.7221 26.5503 28.475C27.2079 28.2194 27.7656 27.8775 28.3216 27.3216C28.8775 26.7656 29.2194 26.2079 29.475 25.5503C29.7221 24.9143 29.8912 24.1873 29.9398 23.1229C29.9884 22.0563 29.9999 21.7158 29.9999 19C29.9999 16.2841 29.9884 15.9436 29.9398 14.877C29.8912 13.8126 29.7221 13.0857 29.475 12.4496C29.2194 11.792 28.8775 11.2343 28.3216 10.6784C27.7656 10.1225 27.2079 9.78055 26.5503 9.525C25.9143 9.27777 25.1873 9.10875 24.1229 9.0602C23.0563 9.01152 22.7158 9 20 9ZM20 10.8018C22.6701 10.8018 22.9864 10.812 24.0408 10.8601C25.0158 10.9046 25.5453 11.0675 25.8977 11.2044C26.3644 11.3858 26.6975 11.6025 27.0475 11.9525C27.3974 12.3024 27.6141 12.6356 27.7955 13.1023C27.9325 13.4546 28.0954 13.9841 28.1398 14.9591C28.1879 16.0136 28.1981 16.3299 28.1981 19C28.1981 21.6701 28.1879 21.9864 28.1398 23.0408C28.0954 24.0158 27.9325 24.5453 27.7955 24.8977C27.6141 25.3644 27.3974 25.6975 27.0475 26.0475C26.6975 26.3974 26.3644 26.6141 25.8977 26.7955C25.5453 26.9325 25.0158 27.0954 24.0408 27.1398C22.9865 27.1879 22.6703 27.1981 20 27.1981C17.3296 27.1981 17.0135 27.1879 15.9591 27.1398C14.9841 27.0954 14.4546 26.9325 14.1023 26.7955C13.6355 26.6141 13.3024 26.3974 12.9524 26.0475C12.6025 25.6975 12.3858 25.3644 12.2044 24.8977C12.0675 24.5453 11.9046 24.0158 11.8601 23.0408C11.8119 21.9864 11.8018 21.6701 11.8018 19C11.8018 16.3299 11.8119 16.0136 11.8601 14.9591C11.9046 13.9841 12.0675 13.4546 12.2044 13.1023C12.3858 12.6356 12.6025 12.3024 12.9524 11.9525C13.3024 11.6025 13.6355 11.3858 14.1023 11.2044C14.4546 11.0675 14.9841 10.9046 15.9591 10.8601C17.0136 10.812 17.3299 10.8018 20 10.8018Z" fill="white"/>
</g>
</g>
</g>
<defs>
<clipPath id="clip0_472_1191">
<rect width="20" height="20" fill="white" transform="translate(10 9)"/>
</clipPath>
<clipPath id="clip1_472_1191">
<rect width="20" height="20" fill="white" transform="translate(10 9)"/>
</clipPath>
<clipPath id="clip2_472_1191">
<rect width="20" height="20" fill="white" transform="translate(10 9)"/>
</clipPath>
</defs>
</svg>
