<svg width="82" height="82" viewBox="0 0 82 82" fill="none" xmlns="http://www.w3.org/2000/svg">
<rect width="82" height="82" rx="41" fill="url(#paint0_linear_1_627)"/>
<g clip-path="url(#clip0_1_627)">
<path d="M41.4985 35.9258C40.8175 35.9245 40.143 36.0576 39.5135 36.3173C38.8839 36.5771 38.3117 36.9585 37.8298 37.4394C37.3478 37.9206 36.9655 38.4921 36.7045 39.121C36.4436 39.7502 36.3093 40.4244 36.3093 41.1054C36.3091 41.786 36.443 42.4601 36.7034 43.089C36.9639 43.718 37.3456 44.2895 37.8269 44.7706C38.3083 45.252 38.8796 45.6339 39.5085 45.8942C40.1375 46.1546 40.8115 46.2885 41.4921 46.2883C42.8664 46.2878 44.1844 45.7417 45.1559 44.7696C46.1276 43.7977 46.6735 42.4798 46.6735 41.1054C46.6735 39.7326 46.1284 38.4158 45.1579 37.4446C44.1877 36.4733 42.8714 35.927 41.4985 35.9258Z" fill="white"/>
<path d="M47.3344 24.7007H34.7847C33.4615 24.7005 32.1512 24.9609 30.9286 25.4671C29.7061 25.9734 28.5952 26.7155 27.6595 27.651C26.7238 28.5866 25.9815 29.6974 25.4751 30.9198C24.9687 32.1423 24.708 33.4525 24.708 34.7758V47.3255C24.7076 48.6489 24.9679 49.9595 25.4742 51.1823C25.9804 52.4052 26.7226 53.5163 27.6584 54.4521C28.5942 55.3881 29.7051 56.1304 30.9279 56.6368C32.1507 57.1433 33.4612 57.4039 34.7847 57.4037H47.3344C48.6573 57.4039 49.9674 57.1435 51.1898 56.6374C52.4121 56.1312 53.5227 55.3891 54.4584 54.4537C55.394 53.5183 56.1361 52.4078 56.6424 51.1854C57.1488 49.9632 57.4093 48.653 57.4093 47.3302V34.7758C57.4095 33.4526 57.1492 32.1424 56.6428 30.92C56.1367 29.6975 55.3946 28.5867 54.459 27.6511C53.5234 26.7155 52.4127 25.9734 51.1901 25.4672C49.9676 24.9609 48.6575 24.7005 47.3344 24.7007ZM41.4915 49.7195C40.3603 49.7197 39.24 49.497 38.1949 49.0643C37.1498 48.6315 36.2002 47.997 35.4002 47.1973C34.6003 46.3976 33.9657 45.4481 33.5328 44.403C33.0999 43.3579 32.8771 42.2378 32.8771 41.1066C32.8771 39.9754 33.0999 38.8553 33.5328 37.8104C33.9657 36.7653 34.6003 35.8157 35.4002 35.0159C36.2002 34.2161 37.1498 33.5818 38.1949 33.149C39.24 32.7163 40.3603 32.4937 41.4915 32.4939C42.6229 32.493 43.7436 32.7152 44.7893 33.1477C45.835 33.5801 46.7852 34.2144 47.5857 35.0143C48.3861 35.8141 49.0212 36.7638 49.4543 37.8092C49.8875 38.8547 50.1105 39.975 50.1105 41.1066C50.1105 43.3909 49.203 45.5815 47.5878 47.1967C45.9726 48.8119 43.782 49.7195 41.4977 49.7195H41.4915ZM49.5072 34.5499C49.2198 34.5499 48.9351 34.4933 48.6694 34.3832C48.4037 34.2731 48.1622 34.1117 47.959 33.9083C47.7557 33.7049 47.5946 33.4634 47.4847 33.1977C47.3748 32.932 47.3184 32.6472 47.3186 32.3596C47.3184 32.072 47.3748 31.7871 47.4847 31.5213C47.5946 31.2555 47.7557 31.0139 47.9588 30.8104C48.1622 30.6069 48.4035 30.4453 48.6692 30.3351C48.9348 30.2248 49.2196 30.168 49.5072 30.1677C50.0884 30.1682 50.6458 30.3992 51.0566 30.8102C51.4676 31.2212 51.6987 31.7784 51.6991 32.3596C51.6982 32.9395 51.4678 33.4954 51.0584 33.9058C50.6489 34.3163 50.0933 34.5479 49.5136 34.5499H49.5072Z" fill="white"/>
</g>
<defs>
<linearGradient id="paint0_linear_1_627" x1="0" y1="41" x2="82" y2="41" gradientUnits="userSpaceOnUse">
<stop stop-color="#195DE2"/>
<stop offset="1" stop-color="#0E337C"/>
</linearGradient>
<clipPath id="clip0_1_627">
<rect width="49.2" height="49.2" fill="white" transform="translate(16.3999 16.3994)"/>
</clipPath>
</defs>
</svg>
