<svg width="40" height="45" viewBox="0 0 40 45" fill="none" xmlns="http://www.w3.org/2000/svg">
<path fill-rule="evenodd" clip-rule="evenodd" d="M19.8308 25.0364V41.2044V44.0586L22.2864 42.6039L39.2053 32.5814L40.0029 32.1089V31.1819V14.3352V13.8411L36.7497 15.6466V30.2549L23.084 38.3503V23.6634V23.2309L19.8308 25.0364Z" fill="#2A458C"/>
<path fill-rule="evenodd" clip-rule="evenodd" d="M20.7882 0.521981L19.9542 0L19.1046 0.496344L2.46477 10.2185L0 11.6585L2.49542 13.0448L19.1353 22.2888L19.9264 22.7283L20.7169 22.2878L37.1291 13.1434L39.642 11.7433L37.1469 10.3117L28.5287 5.36651L20.7882 0.521981ZM19.9241 19.0055L6.57068 11.5873L19.8963 3.80159L22.8065 5.62302L14.8905 10.0956L18.1381 11.9924L25.9401 7.58422L26.8292 8.14067L26.8556 8.15719L26.8826 8.17269L33.0328 11.7017L19.9241 19.0055Z" fill="#2DBE5F"/>
<path fill-rule="evenodd" clip-rule="evenodd" d="M0.00109863 13.2668L2.40608 14.5775L18.6814 23.4473V27.1522L17.9772 26.7684L3.26062 18.7482V23.9062V31.8921L18.6838 40.2975V44.0024L17.9835 43.6207L0.85564 34.2864L0.00742304 33.8241V32.8581V31.939H0.00110912L0.00110829 30.3124L0.00109863 16.0058V13.2668Z" fill="#2B458C"/>
<path d="M12.3298 29.0518C12.1984 30.1634 11.1908 30.958 10.0793 30.8266C8.96771 30.6952 8.17311 29.6876 8.30447 28.5761C8.43583 27.4645 9.43307 26.7574 10.5446 26.8887C11.6562 27.0201 12.4611 27.9402 12.3298 29.0518Z" fill="url(#paint0_linear_58_1083)"/>
<defs>
<linearGradient id="paint0_linear_58_1083" x1="10.555" y1="26.8012" x2="10.0792" y2="30.8266" gradientUnits="userSpaceOnUse">
<stop stop-color="#E28E8E"/>
<stop offset="1" stop-color="#F60000"/>
</linearGradient>
</defs>
</svg>
