<svg width="28" height="29" viewBox="0 0 28 29" fill="none" xmlns="http://www.w3.org/2000/svg">
<path d="M22.4941 21.2852C22.5754 21.3665 22.6398 21.463 22.6838 21.5693C22.7278 21.6755 22.7505 21.7893 22.7505 21.9043C22.7505 22.0193 22.7278 22.1331 22.6838 22.2393C22.6398 22.3455 22.5754 22.4421 22.4941 22.5234C22.4128 22.6047 22.3163 22.6691 22.21 22.7131C22.1038 22.7571 21.99 22.7798 21.875 22.7798C21.76 22.7798 21.6462 22.7571 21.54 22.7131C21.4337 22.6691 21.3372 22.6047 21.2559 22.5234L14 15.2663L6.74406 22.5234C6.57988 22.6875 6.35719 22.7798 6.125 22.7798C5.8928 22.7798 5.67012 22.6875 5.50594 22.5234C5.34175 22.3592 5.24951 22.1365 5.24951 21.9043C5.24951 21.6721 5.34175 21.4494 5.50594 21.2852L12.763 14.0293L5.50594 6.77336C5.34175 6.60917 5.24951 6.38649 5.24951 6.1543C5.24951 5.9221 5.34175 5.69942 5.50594 5.53523C5.67012 5.37105 5.8928 5.27881 6.125 5.27881C6.35719 5.27881 6.57988 5.37105 6.74406 5.53523L14 12.7923L21.2559 5.53523C21.4201 5.37105 21.6428 5.27881 21.875 5.27881C22.1072 5.27881 22.3299 5.37105 22.4941 5.53523C22.6582 5.69942 22.7505 5.9221 22.7505 6.1543C22.7505 6.38649 22.6582 6.60917 22.4941 6.77336L15.237 14.0293L22.4941 21.2852Z" fill="#F6F6F7"/>
</svg>
