<svg width="50" height="50" viewBox="0 0 50 50" fill="none" xmlns="http://www.w3.org/2000/svg">
<rect width="50" height="50" rx="25" transform="matrix(-1 0 0 1 50 0)" fill="#F5F5F5" fill-opacity="0.7"/>
<path d="M21.2043 31.7041C20.9929 31.9154 20.8742 32.2021 20.8742 32.501C20.8742 32.7999 20.9929 33.0865 21.2043 33.2978C21.4156 33.5092 21.7023 33.6279 22.0011 33.6279C22.3 33.6279 22.5867 33.5092 22.798 33.2978L30.298 25.7978C30.4029 25.6933 30.4861 25.5691 30.5429 25.4324C30.5997 25.2956 30.6289 25.149 30.6289 25.001C30.6289 24.8529 30.5997 24.7063 30.5429 24.5696C30.4861 24.4328 30.4029 24.3086 30.298 24.2041L22.798 16.7041C22.5867 16.4928 22.3 16.374 22.0011 16.374C21.7023 16.374 21.4156 16.4928 21.2043 16.7041C20.9929 16.9154 20.8742 17.2021 20.8742 17.501C20.8742 17.7999 20.9929 18.0865 21.2043 18.2978L27.9065 25L21.2043 31.7041Z" fill="#14439F"/>
</svg>
