<svg width="50" height="50" viewBox="0 0 50 50" fill="none" xmlns="http://www.w3.org/2000/svg">
<rect width="50" height="50" rx="25" fill="#F5F5F5" fill-opacity="0.7"/>
<path d="M28.7957 31.7041C29.0071 31.9154 29.1258 32.2021 29.1258 32.501C29.1258 32.7999 29.0071 33.0865 28.7957 33.2978C28.5844 33.5092 28.2977 33.6279 27.9989 33.6279C27.7 33.6279 27.4133 33.5092 27.202 33.2978L19.702 25.7978C19.5971 25.6933 19.5139 25.5691 19.4571 25.4324C19.4003 25.2956 19.3711 25.149 19.3711 25.001C19.3711 24.8529 19.4003 24.7063 19.4571 24.5696C19.5139 24.4328 19.5971 24.3086 19.702 24.2041L27.202 16.7041C27.4133 16.4928 27.7 16.374 27.9989 16.374C28.2977 16.374 28.5844 16.4928 28.7957 16.7041C29.0071 16.9154 29.1258 17.2021 29.1258 17.501C29.1258 17.7999 29.0071 18.0865 28.7957 18.2978L22.0935 25L28.7957 31.7041Z" fill="#14439F"/>
</svg>
